<svg width="600" height="600" viewBox="0 0 600 600" fill="none" xmlns="http://www.w3.org/2000/svg">
<rect width="600" height="600" rx="80" fill="black"/>
<path d="M171.226 258.356C228.303 281.424 271.95 308.432 271.95 381.014C271.95 446.281 237.955 503.109 161.993 501.984C154.858 501.984 147.724 501.421 140.589 500.296L159.475 426.026C191.79 424.338 212.355 406.896 212.355 384.389C212.355 360.195 199.345 350.63 150.242 330.938C82.2534 303.368 54.974 269.609 54.974 211.656C54.974 159.892 83.0928 98 158.635 98C171.226 98 183.397 100.251 195.148 104.752L160.734 172.27C159.894 172.27 158.635 172.27 157.796 172.27C130.517 172.27 114.149 186.899 114.149 208.842C114.149 227.41 125.9 239.788 171.226 258.356ZM47 404.082L98.2014 377.638C100.3 388.891 105.336 401.269 118.346 411.959L99.0407 483.416C70.0826 465.411 51.6165 436.716 47 404.082ZM399.976 101.376C497.343 101.376 554 183.523 554 298.304C554 413.647 497.343 495.232 399.976 495.232H305.547V310.682H361.365V423.775H398.717C460.411 423.775 498.182 373.699 498.182 298.304C498.182 223.471 460.411 173.395 398.717 173.395H305.547V101.376H399.976Z" fill="#DB7DFF"/>
</svg>
